<svg width="347" height="231" viewBox="0 0 347 231" fill="none" xmlns="http://www.w3.org/2000/svg">
<path d="M0 27C0 12.0883 12.0883 0 27 0H320C334.912 0 347 12.0883 347 27V231H0V27Z" fill="#C8F9ED"/>
<rect x="0.5" y="59.5" width="64" height="137" rx="32" stroke="#4F4F4F"/>
<rect x="65.5" y="59.5" width="33" height="72" rx="16.5" stroke="#4F4F4F"/>
<rect x="99.5" y="59.5" width="33" height="72" rx="16.5" stroke="#4F4F4F"/>
<rect x="65.5" y="168.5" width="36" height="281" rx="18" transform="rotate(-90 65.5 168.5)" stroke="#4F4F4F"/>
<rect x="65.5" y="196.5" width="27" height="158" rx="13.5" transform="rotate(-90 65.5 196.5)" stroke="#4F4F4F"/>
<rect x="133.5" y="131.5" width="27" height="158" rx="13.5" transform="matrix(0 -1 1 0 2 265)" stroke="#4F4F4F"/>
<rect x="128.286" y="74.5921" width="28.5514" height="158" rx="14.2757" transform="rotate(-78.7661 128.286 74.5921)" stroke="#4F4F4F"/>
<rect x="224.5" y="196.5" width="27" height="96" rx="13.5" transform="rotate(-90 224.5 196.5)" stroke="#4F4F4F"/>
<circle cx="32.5" cy="164.5" r="31.5" fill="#018D5A"/>
<circle cx="82" cy="76" r="16" fill="#EC6300"/>
<circle cx="116" cy="115" r="16" fill="#C6C6C6"/>
<circle cx="328.5" cy="150.5" r="17.5" fill="#F0F97F"/>
<circle cx="293.5" cy="150.5" r="17.5" fill="#F0F97F"/>
<circle cx="144" cy="183" r="13" fill="#F97FA4"/>
<circle cx="170" cy="183" r="13" fill="#F97FA4"/>
<circle cx="181" cy="118" r="13" fill="#D27FF9"/>
<circle cx="229" cy="80" r="14" fill="#8D8C8D"/>
<circle cx="278" cy="118" r="13" fill="#D27FF9"/>
<circle cx="307" cy="183" r="13" fill="#7FF9BF"/>
</svg>
