<svg width="661" height="483" viewBox="0 0 661 483" fill="none" xmlns="http://www.w3.org/2000/svg">
<rect y="20.7667" width="649.93" height="462.233" rx="27" fill="#5061FF"/>
<path d="M45.9639 214.786L81.0473 181.084L204.037 299.9L154.508 347.479L45.9639 214.786Z" fill="#FFCEAA"/>
<path d="M7.35352 52.452L81.9235 23.6578L184.74 231.108L79.4645 271.759L7.35352 52.452Z" fill="#FFCEAA" fill-opacity="0.54"/>
<path d="M448.684 32.7212L523.534 60.6493L484.412 292.279L378.742 252.852L448.684 32.7212Z" fill="#FFCEAA" fill-opacity="0.54"/>
<path d="M409.998 306.935L460.78 241.126L646.499 363.376L574.807 456.282L409.998 306.935Z" fill="#FFCEAA" fill-opacity="0.54"/>
<path d="M607.207 27.7401L633.046 70.133L507.15 185.319L470.671 125.47L607.207 27.7401Z" fill="#FFCEAA"/>
<path d="M536.068 89.6844L580.361 98.2436L570.75 274.47L507.667 262.279L536.068 89.6844Z" stroke="#FFCEAA" stroke-width="2"/>
<path d="M169.466 261.579L212.087 245.918L282.111 405.298L221.415 427.601L169.466 261.579Z" stroke="#FFCEAA" stroke-width="2"/>
<path d="M329.179 78.6567L371.944 63.467L440.467 223.613L379.565 245.244L329.179 78.6567Z" stroke="#FFCEAA" stroke-width="2"/>
<path d="M559.735 369.512L546.696 416.339L386.433 385.518L404.982 318.906L559.735 369.512Z" stroke="#FFCEAA" stroke-width="2"/>
<path d="M470.671 430.965L482.259 381.736L645.585 405.293L629.226 474.793L470.671 430.965Z" fill="#FFCEAA"/>
<path d="M200.403 77.3168L211.991 28.0874L375.317 51.6444L358.958 121.145L200.403 77.3168Z" fill="#FFCEAA"/>
<ellipse cx="104.798" cy="384.377" rx="78.1387" ry="84.6763" fill="#FFCEAA" fill-opacity="0.52"/>
<ellipse cx="328.183" cy="112.416" rx="78.1387" ry="84.6763" fill="#FFCEAA" fill-opacity="0.52"/>
<ellipse cx="568.114" cy="140.463" rx="78.1387" ry="84.6763" fill="#FFCEAA" fill-opacity="0.52"/>
<ellipse cx="302.442" cy="398.324" rx="78.1387" ry="84.6763" fill="#FFCEAA" fill-opacity="0.52"/>
<ellipse cx="421.029" cy="121.382" rx="45.9639" ry="49.8096" fill="#FFCEAA"/>
<ellipse cx="49.6417" cy="106.439" rx="45.9639" ry="49.8096" fill="#FFCEAA"/>
<path d="M378.662 132.34C378.662 159.374 358.457 181.15 333.698 181.15C308.94 181.15 288.734 159.374 288.734 132.34C288.734 105.306 308.94 83.5308 333.698 83.5308C358.457 83.5308 378.662 105.306 378.662 132.34Z" stroke="#FFCEAA" stroke-width="2"/>
<path d="M411.756 345.525C411.756 372.559 391.551 394.335 366.792 394.335C342.033 394.335 321.828 372.559 321.828 345.525C321.828 318.491 342.033 296.716 366.792 296.716C391.551 296.716 411.756 318.491 411.756 345.525Z" stroke="#FFCEAA" stroke-width="2"/>
<path d="M213.193 418.248C213.193 445.282 192.987 467.057 168.229 467.057C143.47 467.057 123.265 445.282 123.265 418.248C123.265 391.214 143.47 369.438 168.229 369.438C192.987 369.438 213.193 391.214 213.193 418.248Z" stroke="#FFCEAA" stroke-width="2"/>
<path d="M117.587 225.983C117.587 253.016 97.3819 274.792 72.6231 274.792C47.8644 274.792 27.6592 253.016 27.6592 225.983C27.6592 198.949 47.8644 177.173 72.6231 177.173C97.3819 177.173 117.587 198.949 117.587 225.983Z" stroke="#FFCEAA" stroke-width="2"/>
<path d="M515.635 231.96C515.635 258.994 495.43 280.769 470.671 280.769C445.912 280.769 425.707 258.994 425.707 231.96C425.707 204.926 445.912 183.15 470.671 183.15C495.43 183.15 515.635 204.926 515.635 231.96Z" stroke="#FFCEAA" stroke-width="2"/>
<path d="M642.495 135.329C642.495 162.363 622.29 184.139 597.531 184.139C572.773 184.139 552.567 162.363 552.567 135.329C552.567 108.295 572.773 86.5194 597.531 86.5194C622.29 86.5194 642.495 108.295 642.495 135.329Z" stroke="#FFCEAA" stroke-width="2"/>
<ellipse cx="594.773" cy="234.948" rx="45.9639" ry="49.8096" fill="#FFCEAA"/>
<ellipse cx="397.128" cy="399.32" rx="45.9639" ry="49.8096" fill="#FFCEAA"/>
<path d="M182.747 78.5828L161.004 173.831L95.7849 51.2596L182.747 78.5828Z" fill="#FFCEAA"/>
<path d="M307.981 250.805L218.194 238.153L323.21 154.083L307.981 250.805Z" fill="#FFCEAA"/>
<path d="M243.123 364.774L328.672 396.911L210.096 456.132L243.123 364.774Z" fill="#FFCEAA"/>
<path d="M241.262 318.66L273.097 230.601L355.557 261.578L241.262 318.66Z" stroke="#FFCEAA" stroke-width="2"/>
<path d="M415.551 71.207L497.222 37.861L531.21 124.972L415.551 71.207Z" stroke="#FFCEAA" stroke-width="2"/>
<path d="M129.309 61.7558L215.896 49.9742L230.192 143.242L129.309 61.7558Z" stroke="#FFCEAA" stroke-width="2"/>
<path d="M67.7801 266.175L137.586 322.761L88.1794 400.594L67.7801 266.175Z" stroke="#FFCEAA" stroke-width="2"/>
<path d="M55.8289 76.8983L125.635 133.485L76.2282 211.317L55.8289 76.8983Z" stroke="#FFCEAA" stroke-width="2"/>
<path d="M600.865 288.191L620.543 380.26L536.431 405.221L600.865 288.191Z" stroke="#FFCEAA" stroke-width="2"/>
<path d="M480.626 334.722L467.432 237.651L570.656 324.288L480.626 334.722Z" fill="#FFCEAA"/>
</svg>
