<svg width="24" height="24" viewBox="0 0 24 24" fill="none" xmlns="http://www.w3.org/2000/svg">
<g clip-path="url(#clip0_94_504)">
<path d="M23.9998 2.84287C23.3314 4.06666 22.5115 5.10989 21.54 5.97254C21.5496 6.2039 21.5543 6.4654 21.5543 6.75703C21.5543 8.3774 21.3624 9.99973 20.9786 11.624C20.5948 13.2483 20.0086 14.8031 19.2199 16.2882C18.4311 17.7734 17.4916 19.0892 16.4013 20.2355C15.311 21.3818 14.0004 22.2958 12.4695 22.9775C10.9386 23.6592 9.29791 24 7.54739 24C4.81541 24 2.29953 23.0921 -0.000250222 21.2762C0.407934 21.3321 0.799418 21.3601 1.1742 21.3601C3.45654 21.3601 5.49504 20.4947 7.2897 18.7638C6.22554 18.7398 5.27251 18.3365 4.4306 17.554C3.58869 16.7715 3.00931 15.7716 2.69245 14.5543C3.00564 14.6277 3.31475 14.6645 3.61978 14.6645C4.05884 14.6645 4.49088 14.594 4.91588 14.453C3.78023 14.173 2.8381 13.4766 2.08952 12.364C1.34095 11.2514 0.96667 9.9672 0.96667 8.51146V8.43643C1.66374 8.91157 2.40727 9.1643 3.19727 9.19464C2.52452 8.64251 1.99113 7.92252 1.5971 7.03466C1.20304 6.14681 1.00601 5.18599 1.00601 4.15222C1.00601 3.06193 1.22794 2.04666 1.6718 1.10642C2.90681 2.97214 4.40327 4.46327 6.1612 5.57983C7.91915 6.69641 9.80509 7.31652 11.819 7.44017C11.7331 6.99948 11.6901 6.5396 11.69 6.06053C11.69 4.38779 12.1708 2.95952 13.1325 1.77571C14.0942 0.591904 15.2545 0 16.6133 0C18.0359 0 19.2341 0.637688 20.2081 1.91306C21.3209 1.64172 22.3628 1.15093 23.3339 0.440688C22.9597 1.89013 22.2388 3.00827 21.1712 3.79512C22.1525 3.65157 23.0953 3.33415 23.9997 2.84287H23.9998Z" fill="#F8F8F8"/>
</g>
<defs>
<clipPath id="clip0_94_504">
<rect width="24" height="24" fill="white"/>
</clipPath>
</defs>
</svg>
