<svg width="347" height="231" viewBox="0 0 347 231" fill="none" xmlns="http://www.w3.org/2000/svg">
<path d="M0 27C0 12.0883 12.0883 0 27 0H320C334.912 0 347 12.0883 347 27V75H0V27Z" fill="#3E00A4"/>
<rect y="75" width="347" height="11" fill="#B255FB"/>
<rect y="167" width="347" height="64" fill="#3E00A4"/>
<rect y="156" width="347" height="11" fill="#B255FB"/>
<rect y="86" width="33" height="14" fill="#3E00EE"/>
<rect x="149" y="142" width="33" height="14" fill="#3E00EE"/>
<rect x="81" y="86" width="33" height="14" fill="#3E00EE"/>
<rect x="165" y="86" width="33" height="14" fill="#3E00EE"/>
<rect y="114" width="33" height="14" fill="#3E00EE"/>
<rect x="165" y="100" width="33" height="14" fill="#B255FB"/>
<rect y="128" width="33" height="14" fill="#B255FB"/>
<rect x="198" y="100" width="33" height="14" fill="#3E00EE"/>
<rect x="33" y="128" width="33" height="14" fill="#3E00EE"/>
<rect y="142" width="33" height="14" fill="#EE0072"/>
<rect y="100" width="33" height="14" fill="#EE0072"/>
<rect x="149" y="128" width="33" height="14" fill="#3E00EE"/>
<rect x="33" y="142" width="62" height="14" fill="#0B0B0B"/>
<rect x="120" y="128" width="29" height="14" fill="#0B0B0B"/>
<rect x="52" y="86" width="29" height="14" fill="#0B0B0B"/>
<rect x="318" y="128" width="29" height="14" fill="#0B0B0B"/>
<rect x="33" y="100" width="62" height="14" fill="#B255FB"/>
<rect x="182" y="128" width="62" height="14" fill="#B255FB"/>
<rect x="95" y="142" width="18" height="14" fill="#3E00EE"/>
<rect x="250" y="100" width="18" height="14" fill="#3E00EE"/>
<rect x="220" y="142" width="18" height="14" fill="#3E00EE"/>
<rect x="85" y="128" width="18" height="14" fill="#3E00EE"/>
<rect x="95" y="100" width="18" height="14" fill="#3E00EE"/>
<rect x="244" y="128" width="18" height="14" fill="#3E00EE"/>
<rect x="113" y="142" width="18" height="14" fill="#3E00A4"/>
<rect x="268" y="100" width="18" height="14" fill="#B255FB"/>
<rect x="238" y="142" width="18" height="14" fill="#B255FB"/>
<rect x="103" y="128" width="18" height="14" fill="#EE0072"/>
<rect x="113" y="100" width="18" height="14" fill="#3E00A4"/>
<rect x="262" y="128" width="18" height="14" fill="#3E00A4"/>
<rect x="131" y="142" width="18" height="14" fill="#F6F6F6"/>
<rect x="286" y="100" width="18" height="14" fill="#3E00A4"/>
<rect x="256" y="142" width="18" height="14" fill="#3E00A4"/>
<rect x="131" y="100" width="34" height="14" fill="#F6F6F6"/>
<rect x="280" y="128" width="37" height="14" fill="#F6F6F6"/>
<rect x="182" y="114" width="36.5436" height="14" fill="#F6F6F6"/>
<rect x="218.544" y="114" width="68.6577" height="14" fill="#0B0B0B"/>
<rect x="287.201" y="114" width="19.9329" height="14" fill="#3E00EE"/>
<rect x="307.134" y="114" width="19.9329" height="14" fill="#3E00A4"/>
<rect x="327.067" y="114" width="19.9329" height="14" fill="#F6F6F6"/>
<rect width="33" height="14" transform="matrix(-1 0 0 1 347 86)" fill="#EE0072"/>
<rect width="33" height="14" transform="matrix(-1 0 0 1 347 142)" fill="#EE0072"/>
<rect width="62" height="14" transform="matrix(-1 0 0 1 314 86)" fill="#F6F6F6"/>
<rect width="18" height="14" transform="matrix(-1 0 0 1 252 86)" fill="#3E00EE"/>
<rect width="18" height="14" transform="matrix(-1 0 0 1 234 86)" fill="#3E00A4"/>
<rect width="18" height="14" transform="matrix(-1 0 0 1 216 86)" fill="#0B0B0B"/>
<rect width="33" height="14" transform="matrix(-1 0 0 1 182 114)" fill="#EE0072"/>
<rect width="62" height="14" transform="matrix(-1 0 0 1 149 114)" fill="#F6F6F6"/>
<rect width="18" height="14" transform="matrix(-1 0 0 1 86.9998 114)" fill="#3E00EE"/>
<rect width="18" height="14" transform="matrix(-1 0 0 1 69.0002 114)" fill="#3E00A4"/>
<rect width="18" height="14" transform="matrix(-1 0 0 1 51.0001 114)" fill="#0B0B0B"/>
<rect x="33" y="86" width="19" height="14" fill="#EE0072"/>
<rect x="182" y="142" width="19" height="14" fill="#EE0072"/>
<rect x="114" y="86" width="51" height="14" fill="#EE0072"/>
<rect x="304" y="100" width="43" height="14" fill="#3E00EE"/>
<rect x="274" y="142" width="43" height="14" fill="#3E00EE"/>
<rect x="231" y="100" width="19" height="14" fill="#EE0072"/>
<rect x="201" y="142" width="19" height="14" fill="#EE0072"/>
<rect x="66" y="128" width="19" height="14" fill="#F6F6F6"/>
</svg>
