<svg width="347" height="231" viewBox="0 0 347 231" fill="none" xmlns="http://www.w3.org/2000/svg">
<path d="M0 27C0 12.0883 12.0883 0 27 0H320C334.912 0 347 12.0883 347 27V231H0V27Z" fill="#E7E9F8"/>
<rect x="40" width="88.3333" height="77" fill="#7380FF"/>
<rect x="40" width="44.1667" height="38.5" fill="#000C78"/>
<path d="M40 38.5L84.1667 77H40V38.5Z" fill="#000C78"/>
<path d="M128.333 38.5L84.1666 6.55651e-07L128.333 6.55651e-07V38.5Z" fill="#E2E5FF"/>
<path d="M128.333 0H178.167C199.43 0 216.667 17.237 216.667 38.5V38.5C216.667 59.763 199.43 77 178.167 77H128.333V0Z" fill="#0011AC"/>
<path d="M128.333 77C128.333 55.737 145.57 38.5 166.833 38.5H172.5V77H128.333V77Z" fill="#7380FF"/>
<path d="M216.667 38.5C216.667 59.763 199.429 77 178.167 77H172.5V38.5L216.667 38.5V38.5Z" fill="#7380FF"/>
<rect x="40" y="77" width="88.3333" height="77" fill="#0011AC"/>
<rect x="61.682" y="95.9" width="44.1667" height="38.5" rx="19.25" fill="#E2E5FF"/>
<rect x="84.1667" y="115.5" width="44.1667" height="38.5" fill="#7380FF"/>
<path d="M105.848 115.5C105.848 117.982 105.287 120.44 104.198 122.733C103.108 125.026 101.511 127.109 99.4979 128.864C97.4845 130.619 95.0943 132.012 92.4638 132.961C89.8332 133.911 87.0138 134.4 84.1665 134.4L84.1665 115.5H105.848Z" fill="#000C78"/>
<rect x="40" y="154" width="88.3333" height="77" fill="#000C78"/>
<path d="M40 192.5C40 171.237 57.237 154 78.5 154H84.1667V192.5H40V192.5Z" fill="#E2E5FF"/>
<path d="M84.1667 192.5C84.1667 171.237 101.404 154 122.667 154H128.333V192.5H84.1667V192.5Z" fill="#0011AC"/>
<rect x="84.1667" y="192.5" width="44.1667" height="38.5" fill="#E2E5FF"/>
<path d="M84.1667 191.8H128.333V191.8C128.333 213.063 111.096 230.3 89.8333 230.3H84.1667V191.8Z" fill="#7380FF"/>
<path d="M105.848 192.5C105.848 197.513 103.564 202.32 99.4979 205.864C95.4317 209.409 89.9169 211.4 84.1665 211.4L84.1665 192.5H105.848Z" fill="#E2E5FF"/>
<path d="M128.333 154C128.333 132.737 145.57 115.5 166.833 115.5H172.5V154H128.333V154Z" fill="#0011AC"/>
<path d="M128.333 115.5C128.333 94.237 145.57 77 166.833 77H172.5V115.5H128.333V115.5Z" fill="#E2E5FF"/>
<path d="M172.5 77L216.666 115.5H172.5V77Z" fill="#0011AC"/>
<path d="M172.5 115.5L216.666 154H172.5V115.5Z" fill="#E2E5FF"/>
<path d="M150.818 115.5C150.818 113.018 151.379 110.56 152.468 108.267C153.558 105.974 155.155 103.891 157.168 102.136C159.182 100.381 161.572 98.9885 164.202 98.0387C166.833 97.0889 169.652 96.6 172.5 96.6L172.5 115.5L150.818 115.5Z" fill="#000C78"/>
<rect x="128.333" y="154" width="88.3333" height="77" fill="#D9D9D9"/>
<rect x="172.5" y="154" width="44.1667" height="38.5" fill="#000C78"/>
<path d="M128.333 154H134C155.263 154 172.5 171.237 172.5 192.5V192.5H128.333V154Z" fill="#E2E5FF"/>
<path d="M128.333 192.5H172.5V231L128.333 192.5Z" fill="#E2E5FF"/>
<path d="M172.5 192.5H216.666V192.5C216.666 213.763 199.429 231 178.166 231H172.5V192.5Z" fill="#0011AC"/>
<path d="M216.667 153.3H266.5C287.763 153.3 305 170.537 305 191.8V191.8C305 213.063 287.763 230.3 266.5 230.3H216.667V153.3Z" fill="#D9D9D9"/>
<path d="M260.833 153.3H266.5C287.763 153.3 305 170.537 305 191.8V191.8H260.833V153.3Z" fill="#E2E5FF"/>
<path d="M260.833 191.8H305V191.8C305 213.063 287.763 230.3 266.5 230.3H260.833V191.8Z" fill="#E2E5FF"/>
<rect x="216.667" y="153.3" width="44.1667" height="38.5" fill="#E2E5FF"/>
<rect x="216.667" y="191.8" width="44.1667" height="38.5" fill="#E2E5FF"/>
<rect x="216.667" y="172.2" width="44.1667" height="38.5" fill="#000C78"/>
<rect x="239.152" y="172.2" width="44.1667" height="38.5" rx="19.25" fill="#000C78"/>
</svg>
